<svg id="Layer_1" data-name="Layer 1" xmlns="http://www.w3.org/2000/svg" viewBox="0 0 276.14 50.9"><defs><style>.cls-1{fill:#fff;}</style></defs><title>logo_moller2-white</title><path class="cls-1" d="M0,50.17,6.15.56h8.76l15,32L44.74.56h8.77l6,49.61H49L45.26,20.46l-11.48,24h-8.1l-11.58-24L10.31,50.17Z" transform="translate(0 0.04)"/><path class="cls-1" d="M65.57,25.47a25.37,25.37,0,0,1,3.34-12.8A24.88,24.88,0,0,1,78,3.37a25.37,25.37,0,0,1,25.4,0,24.84,24.84,0,0,1,9.14,9.26,25.38,25.38,0,0,1,3.34,12.84,25.21,25.21,0,0,1-3.34,12.74,24.9,24.9,0,0,1-9.14,9.25,25.07,25.07,0,0,1-35.85-12.2A25.17,25.17,0,0,1,65.57,25.47Zm10.51,0a15.42,15.42,0,0,0,4.25,11,14.21,14.21,0,0,0,20.08.71q.37-.34.71-.71a15.39,15.39,0,0,0,4.27-11,15.48,15.48,0,0,0-4.29-11,14.13,14.13,0,0,0-20-.81q-.42.39-.81.81A15.53,15.53,0,0,0,76.08,25.47Z" transform="translate(0 0.04)"/><path class="cls-1" d="M124.67,50.17V.56h10.51V40.89h18.63v9.28Z" transform="translate(0 0.04)"/><path class="cls-1" d="M161.44,50.17V.56h10.47V40.89h18.63v9.28Z" transform="translate(0 0.04)"/><path class="cls-1" d="M198.21,50.17V.56h31.4V9.84H208.73V21.17H227v9.14H208.73V40.89h21.52v9.28Z" transform="translate(0 0.04)"/><path class="cls-1" d="M239.66,50.17V.56h20.11A18,18,0,0,1,267,1.95a13.64,13.64,0,0,1,5.16,3.73,16.81,16.81,0,0,1,3,5.19,17.76,17.76,0,0,1,1,6A17.11,17.11,0,0,1,273,26.94a14.11,14.11,0,0,1-9,5.68L276,50.2H263.67l-11.1-17.12h-2.4V50.17ZM250.17,23.8h9a5.53,5.53,0,0,0,4.58-2.14,7.58,7.58,0,0,0,1.69-4.82,8,8,0,0,0-1.6-4.8,5.14,5.14,0,0,0-4.39-2.2h-9.23Z" transform="translate(0 0.04)"/></svg>