<svg id="Layer_1" data-name="Layer 1" xmlns="http://www.w3.org/2000/svg" viewBox="0 0 276.12 50.87"><defs><style>.cls-1{isolation:isolate;}.cls-2{fill:#222;}</style></defs><title>logo_moller2</title><g class="cls-1"><path class="cls-2" d="M3.09,60.8,9.24,11.19H18l15,32,14.83-32H56.6l6,49.61H52.07L48.35,31.09l-11.48,24H28.77l-11.58-24L13.4,60.8Z" transform="translate(-3.09 -10.63)"/><path class="cls-2" d="M68.66,36.1A25.37,25.37,0,0,1,72,23.3,24.88,24.88,0,0,1,81.12,14a25.37,25.37,0,0,1,25.4,0,24.84,24.84,0,0,1,9.14,9.26A25.38,25.38,0,0,1,119,36.1a25.21,25.21,0,0,1-3.34,12.74,24.9,24.9,0,0,1-9.14,9.25A25.2,25.2,0,0,1,84,59.48,25.16,25.16,0,0,1,76,54a25.45,25.45,0,0,1-5.33-8.11A25.17,25.17,0,0,1,68.66,36.1Zm10.51,0a15.42,15.42,0,0,0,4.25,11,14.21,14.21,0,0,0,20.79,0,15.39,15.39,0,0,0,4.27-11,15.48,15.48,0,0,0-4.29-11,14.13,14.13,0,0,0-20.78,0A15.53,15.53,0,0,0,79.17,36.1Z" transform="translate(-3.09 -10.63)"/><path class="cls-2" d="M127.76,60.8V11.19h10.51V51.52H156.9V60.8Z" transform="translate(-3.09 -10.63)"/><path class="cls-2" d="M164.53,60.8V11.19H175V51.52h18.63V60.8Z" transform="translate(-3.09 -10.63)"/><path class="cls-2" d="M201.3,60.8V11.19H232.7v9.28H211.82V31.8H230.1v9.14H211.82V51.52h21.52V60.8Z" transform="translate(-3.09 -10.63)"/><path class="cls-2" d="M242.75,60.8V11.19h20.11a18,18,0,0,1,7.21,1.39,13.64,13.64,0,0,1,5.16,3.73,16.81,16.81,0,0,1,3,5.19,17.76,17.76,0,0,1,1,6,17.11,17.11,0,0,1-3.09,10.07,14.11,14.11,0,0,1-9,5.68l12,17.58H266.76l-11.1-17.12h-2.4V60.8Zm10.51-26.37h9a5.53,5.53,0,0,0,4.58-2.14,7.58,7.58,0,0,0,1.69-4.82,8,8,0,0,0-1.6-4.8,5.14,5.14,0,0,0-4.39-2.2h-9.23Z" transform="translate(-3.09 -10.63)"/></g><text x="-3.09" y="-10.63"></text></svg>